<?xml version="1.0" encoding="utf-8"?>
<!-- Generator: Adobe Illustrator 19.2.1, SVG Export Plug-In . SVG Version: 6.00 Build 0)  -->
<svg version="1.1" id="Layer_1" xmlns="http://www.w3.org/2000/svg" xmlns:xlink="http://www.w3.org/1999/xlink" x="0px" y="0px"
	 viewBox="0 0 337.9 44.7" style="enable-background:new 0 0 337.9 44.7;" xml:space="preserve">
<style type="text/css">
	.st0{fill:#FFFFFF;}
</style>
<g>
	<path id="name1" class="st0" d="M0,1.8h9.2v18.4L26.3,1.8h11.2L20.4,19.6l17.9,24.2H27.2l-13-17.9l-4.9,5v12.9H0V1.8z"/>
	<path id="name2" class="st0" d="M40.4,34.6L40.4,34.6c0-7.1,5.3-10.4,13-10.4c3.2,0,5.6,0.5,7.9,1.3V25c0-3.8-2.3-5.9-6.9-5.9
		c-3.5,0-5.9,0.7-8.9,1.7l-2.3-7c3.5-1.6,7-2.6,12.5-2.6c5,0,8.6,1.3,10.9,3.6c2.4,2.4,3.5,5.9,3.5,10.3v18.7h-8.8v-3.5
		c-2.2,2.5-5.3,4.1-9.7,4.1C45.3,44.4,40.4,40.9,40.4,34.6z M61.3,32.5v-1.7c-1.6-0.7-3.6-1.2-5.8-1.2c-3.9,0-6.3,1.6-6.3,4.4v0.1
		c0,2.5,2,3.9,5,3.9C58.4,38.1,61.3,35.8,61.3,32.5z"/>
	<path id="name3" class="st0" d="M79,34.7V19.4h-3.8v-7.8H79V3.4h9.1v8.2h7.6v7.8h-7.6v13.7c0,2.1,0.9,3.1,2.9,3.1
		c1.7,0,3.2-0.4,4.5-1.1v7.3c-1.9,1.1-4.1,1.9-7.2,1.9C82.8,44.3,79,42.1,79,34.7z"/>
	<path id="name4" class="st0" d="M99.9,27.9L99.9,27.9c0-9.3,6.5-16.8,15.9-16.8c10.7,0,15.7,8.3,15.7,17.5c0,0.7-0.1,1.6-0.1,2.4
		H109c0.9,4.1,3.8,6.3,7.9,6.3c3.1,0,5.3-1,7.8-3.3l5.2,4.6c-3,3.7-7.3,6-13.1,6C107.1,44.5,99.9,37.7,99.9,27.9z M122.6,25.2
		c-0.5-4.1-2.9-6.8-6.8-6.8c-3.8,0-6.2,2.7-7,6.8H122.6z"/>
	<path id="name5" class="st0" d="M180.6,39.7c-3.4,2.8-7.4,4.7-12.3,4.7c-8,0-14.1-4.7-14.1-12.1v-0.1c0-5.3,2.9-9.1,8.2-11.5
		c-2-2.9-2.9-5.5-2.9-8.4v-0.1c0-5.8,4.6-11,12.7-11c7.1,0,11.8,4.7,11.8,10.6v0c0,5.6-3.6,8.9-8.8,11l5.6,5.6
		c1.4-2.2,2.8-4.6,4.1-7.2l6.8,3.7c-1.6,2.9-3.4,6.1-5.5,8.9l6.2,6.2l-6.8,4.7L180.6,39.7z M175.5,34.4l-8-8.2
		c-2.8,1.4-3.9,3.5-3.9,5.5v0.1c0,2.9,2.5,4.9,5.9,4.9C171.5,36.8,173.6,35.9,175.5,34.4z M176,12.3v-0.1c0-2.4-1.6-3.9-4-3.9
		c-2.5,0-4.1,1.7-4.1,4.3v0.1c0,1.9,0.7,3.2,2.5,5.2C174,16.5,176,14.9,176,12.3z"/>
	<path id="name6" class="st0" d="M217,1.8h17.2c10,0,16.1,5.9,16.1,14.5v0.1c0,9.7-7.6,14.8-17,14.8h-7v12.6H217V1.8z M233.6,23
		c4.6,0,7.3-2.8,7.3-6.4v-0.1c0-4.1-2.9-6.4-7.5-6.4h-7.1v12.8L233.6,23L233.6,23z"/>
	<path id="name7" class="st0" d="M253.6,34.6L253.6,34.6c0-7.1,5.3-10.4,13-10.4c3.2,0,5.6,0.5,7.9,1.3V25c0-3.8-2.3-5.9-6.9-5.9
		c-3.5,0-5.9,0.7-8.9,1.7l-2.3-7c3.5-1.6,7-2.6,12.5-2.6c5,0,8.6,1.3,10.9,3.6c2.4,2.4,3.5,5.9,3.5,10.3v18.7h-8.8v-3.5
		c-2.2,2.5-5.3,4.1-9.7,4.1C258.6,44.4,253.6,40.9,253.6,34.6z M274.5,32.5v-1.7c-1.6-0.7-3.6-1.2-5.8-1.2c-3.9,0-6.3,1.6-6.3,4.4
		v0.1c0,2.5,2,3.9,5,3.9C271.7,38.1,274.5,35.8,274.5,32.5z"/>
	<path id="name8" class="st0" d="M290.8,32.5V11.6h9.1v17.9c0,4.3,2,6.5,5.5,6.5s5.7-2.2,5.7-6.5V11.6h9.1v32.2h-9.1v-4.6
		c-2.1,2.7-4.8,5.2-9.4,5.2C294.8,44.4,290.8,39.8,290.8,32.5z"/>
	<path id="name9" class="st0" d="M328.8,0h9.1v43.8h-9.1V0z"/>
</g>
</svg>
